<?xml version="1.0" standalone="no"?>
<!DOCTYPE svg PUBLIC "-//W3C//DTD SVG 20010904//EN"
 "http://www.w3.org/TR/2001/REC-SVG-20010904/DTD/svg10.dtd">
<svg version="1.0" xmlns="http://www.w3.org/2000/svg"
 width="260.000000pt" height="260.000000pt" viewBox="0 0 260.000000 260.000000"
 preserveAspectRatio="xMidYMid meet">
<metadata>
Created by potrace 1.11, written by Peter Selinger 2001-2013
</metadata>
<g transform="translate(0.000000,260.000000) scale(0.100000,-0.100000)"
fill="#000000" stroke="none">
<path d="M510 2403 c-8 -3 -27 -17 -42 -31 l-28 -26 0 -1046 0 -1046 31 -30
30 -29 806 0 c746 0 807 1 816 17 9 13 7 21 -6 36 -14 15 -17 38 -17 121 0
101 1 103 30 133 l30 30 0 907 0 907 -31 30 -30 29 -787 2 c-433 1 -794 -1
-802 -4z m60 -85 c0 -34 15 -50 41 -46 19 2 25 10 27 36 l3 32 712 0 c392 0
718 -4 725 -8 10 -7 12 -193 10 -898 l-3 -889 -60 -5 c-59 -5 -60 -6 -60 -35
0 -27 4 -30 33 -33 29 -3 32 -6 32 -38 l0 -34 -719 0 c-774 0 -758 1 -731 -49
11 -21 14 -21 730 -21 l720 0 0 -35 0 -35 -747 0 c-457 0 -754 4 -763 10 -12
7 -14 28 -12 96 1 48 5 90 8 95 3 5 304 9 678 9 724 0 707 -1 691 50 -6 20
-10 20 -621 20 -338 0 -615 3 -615 8 -1 4 -5 376 -8 827 -6 778 -7 820 -24
823 -48 10 -47 36 -47 -839 l0 -819 -30 0 -30 0 0 890 c0 836 1 890 18 899 28
17 42 13 42 -11z"/>
<path d="M1041 2186 c-69 -38 -65 -155 7 -185 20 -8 116 -11 336 -9 l308 3 29
33 c42 46 40 93 -5 138 l-34 34 -308 0 c-237 -1 -315 -4 -333 -14z m634 -76
c15 -49 3 -50 -308 -48 -254 3 -291 5 -300 19 -6 9 -7 24 -4 33 6 14 38 16
306 16 293 0 300 0 306 -20z"/>
<path d="M821 2111 c-16 -29 8 -53 48 -49 68 6 63 68 -5 68 -22 0 -37 -6 -43
-19z"/>
<path d="M1827 2124 c-4 -4 -7 -18 -7 -30 0 -26 29 -38 71 -32 19 2 24 9 24
33 0 28 -3 30 -40 33 -23 2 -44 0 -48 -4z"/>
<path d="M1287 1876 c-62 -23 -117 -64 -145 -111 -15 -25 -34 -45 -43 -45 -41
-1 -118 -33 -148 -62 -47 -46 -64 -85 -64 -148 0 -92 55 -171 141 -201 l32
-11 0 -90 c0 -86 1 -91 29 -119 l29 -29 252 0 252 0 29 29 c28 28 29 33 29
119 l0 91 54 24 c74 34 109 86 114 172 7 110 -56 194 -165 216 -52 11 -61 16
-84 54 -63 100 -202 150 -312 111z m169 -80 c53 -24 84 -59 110 -121 13 -32
19 -36 47 -34 71 5 89 -1 128 -40 35 -35 39 -44 39 -88 0 -69 -31 -113 -90
-132 -72 -22 -75 -24 -78 -75 l-3 -46 -45 0 c-24 0 -44 1 -44 3 0 2 13 43 30
92 32 94 29 119 -13 113 -16 -2 -28 -25 -55 -106 -30 -91 -37 -103 -56 -100
-20 3 -21 9 -24 115 -3 114 -12 140 -45 127 -22 -8 -27 -36 -27 -146 0 -89 -2
-98 -19 -98 -15 0 -26 20 -52 97 -37 104 -57 129 -85 101 -15 -15 -14 -22 10
-95 14 -43 26 -84 26 -91 0 -7 -15 -12 -40 -12 -39 0 -40 1 -40 36 0 46 -16
74 -41 74 -102 0 -166 123 -110 214 25 40 61 57 127 59 47 2 50 4 74 48 36 66
49 79 105 105 63 30 107 30 171 0z m152 -628 l-3 -33 -235 0 -235 0 -3 27 c-4
34 -1 34 271 36 l208 2 -3 -32z"/>
<path d="M1078 949 c-24 -13 -23 -46 1 -59 12 -6 123 -10 291 -10 168 0 279 4
291 10 10 6 19 19 19 30 0 11 -9 24 -19 30 -26 14 -560 13 -583 -1z"/>
<path d="M1165 760 c-15 -46 4 -51 208 -48 164 3 191 5 200 20 8 12 7 21 -2
32 -11 14 -43 16 -207 16 -185 0 -193 -1 -199 -20z"/>
</g>
</svg>
