<?xml version="1.0" standalone="no"?>
<!DOCTYPE svg PUBLIC "-//W3C//DTD SVG 20010904//EN"
 "http://www.w3.org/TR/2001/REC-SVG-20010904/DTD/svg10.dtd">
<svg version="1.0" xmlns="http://www.w3.org/2000/svg"
 width="260.000000pt" height="260.000000pt" viewBox="0 0 260.000000 260.000000"
 preserveAspectRatio="xMidYMid meet">
<metadata>
Created by potrace 1.14, written by Peter Selinger 2001-2017
</metadata>
<g transform="translate(0.000000,260.000000) scale(0.100000,-0.100000)"
fill="#000000" stroke="none">
<path d="M771 2555 c-18 -24 -19 -38 -16 -153 6 -203 20 -584 30 -832 22 -544
22 -537 0 -840 -2 -30 -6 -102 -10 -160 -3 -58 -8 -143 -11 -190 -2 -47 -7
-118 -9 -158 -8 -135 48 -207 160 -207 74 0 118 28 147 91 16 38 18 61 14 186
-26 741 -26 791 -1 927 1 9 6 43 9 76 7 59 13 105 21 155 17 108 36 433 32
520 -9 168 -71 344 -171 484 -87 122 -151 155 -195 101z"/>
<path d="M1406 2504 c-10 -10 -16 -34 -17 -67 0 -29 -2 -136 -5 -238 -3 -110
-1 -217 5 -264 13 -87 50 -182 88 -217 l24 -23 -6 -260 c-3 -143 -8 -294 -10
-335 -7 -122 -20 -673 -20 -837 0 -137 2 -154 21 -179 33 -45 70 -67 122 -72
62 -5 122 25 155 78 l22 35 0 780 0 781 30 39 c74 96 87 163 85 465 -1 274 -2
293 -20 315 -23 28 -90 9 -90 -26 0 -5 -20 -9 -44 -9 -36 0 -47 5 -60 25 -10
15 -26 25 -41 25 -24 0 -55 -23 -55 -41 0 -5 -18 -9 -41 -9 -32 0 -46 6 -61
25 -22 28 -59 33 -82 9z"/>
</g>
</svg>
